<?xml version="1.0" encoding="utf-8"?>
<!-- Generator: Adobe Illustrator 23.0.0, SVG Export Plug-In . SVG Version: 6.00 Build 0)  -->
<svg version="1.1" id="Layer_1" xmlns="http://www.w3.org/2000/svg" xmlns:xlink="http://www.w3.org/1999/xlink" x="0px" y="0px"
	 viewBox="0 0 108.4 122.9" style="enable-background:new 0 0 108.4 122.9;" xml:space="preserve">
<style type="text/css">
	.st0{fill-rule:evenodd;clip-rule:evenodd;fill:#161615;}
	.st1{fill-rule:evenodd;clip-rule:evenodd;fill:#0C0C0B;}
	.st2{fill-rule:evenodd;clip-rule:evenodd;fill:#FFFFFF;}
</style>
<path class="st0" d="M95,23.7c-0.1-0.6-0.6-1-1.1-1c-0.4,0-9.2-0.2-9.2-0.2s-7.3-7.1-8-7.8c-0.7-0.7-2.1-0.5-2.7-0.3
	c0,0-1.4,0.4-3.7,1.1c-0.4-1.3-0.9-2.8-1.8-4.3c-2.6-5-6.4-7.6-11-7.6c0,0,0,0,0,0c-0.3,0-0.6,0-1,0.1c-0.1-0.2-0.3-0.3-0.4-0.5
	c-2-2.2-4.6-3.2-7.7-3.1c-6,0.2-11.9,4.5-16.7,12.1c-3.4,5.4-6,12.1-6.7,17.4c-6.8,2.1-11.6,3.6-11.7,3.6c-3.4,1.1-3.6,1.2-4,4.4
	C9,40,0,109.8,0,109.8l75.7,13.1l32.8-8.2C108.4,114.7,95.1,24.3,95,23.7L95,23.7z M66.5,16.6c-1.7,0.5-3.7,1.1-5.9,1.8
	c0-3-0.4-7.2-1.8-10.8C63.4,8.5,65.6,13.6,66.5,16.6L66.5,16.6z M56.7,19.7c-4,1.2-8.3,2.6-12.6,3.9c1.2-4.7,3.5-9.3,6.4-12.4
	c1.1-1.1,2.5-2.4,4.3-3.1C56.4,11.5,56.7,16.4,56.7,19.7L56.7,19.7z M48.6,4c1.4,0,2.6,0.3,3.6,0.9c-1.6,0.8-3.2,2-4.6,3.6
	c-3.8,4.1-6.7,10.4-7.8,16.4c-3.6,1.1-7.1,2.2-10.4,3.2C31.4,18.6,39.4,4.2,48.6,4L48.6,4z"/>
<path class="st1" d="M93.9,22.7c-0.4,0-9.2-0.2-9.2-0.2s-7.3-7.1-8-7.8c-0.3-0.3-0.6-0.4-1-0.5v108.7l32.8-8.2
	c0,0-13.4-90.4-13.5-91.1C94.9,23,94.3,22.7,93.9,22.7L93.9,22.7z"/>
<path class="st2" d="M57.5,39.5l-3.8,14.3c0,0-4.3-1.9-9.3-1.6c-7.4,0.5-7.5,5.1-7.4,6.3c0.4,6.4,17.2,7.8,18.1,22.7
	c0.7,11.7-6.2,19.8-16.3,20.4c-12,0.8-18.7-6.3-18.7-6.3l2.5-10.9c0,0,6.7,5,12,4.7c3.5-0.2,4.7-3.1,4.6-5.1
	c-0.5-8.3-14.2-7.8-15-21.5C23.6,51,31.1,39.3,47.8,38.3C54.2,37.9,57.5,39.5,57.5,39.5L57.5,39.5z"/>
</svg>
